Patient4_TMGait_0pt7_01_right_15_EMG.mot
version=1
nRows=30
nColumns=33
inDegrees=no
endheader
time	1LAddLong	2LGlutMax	3LGlutMed	4LIliopsoas	5LSemiMemb	6LBicFemLong	7LRecFem	8LVastMed	9LVastLat	10LGasMed	11LTibAnt	12lTibPost	13LPeroneusLong	14LSol	15LExtDigLong	16LFlexDigLong	17RAddLong	18RGlutMax	19RGlutMed	20RIliopsoas	21RSemiMemb	22RBicFemLong	23RRecFem	24RVastMed	25RVastLat	26RGasMed	27RTibAnt	28RTibPost	29RPeroneusLong	30RSol	31RExtDigLong	32RFlexDigLong
17.818	-0.004272	0.15503	0.01297	0.010071	-0.097809	-0.057068	0.24139	0.01297	0.00824	-0.051575	0.063782	0.011597	-0.17105	0.25299	0.003815	0.016022	-0.046844	-0.008392	-0.18692	-0.024261	0.038452	0.004578	-0.073242	0.016174	0.023346	0.002899	0.13016	-0.009613	0.27222	-0.1622	-0.003357	0.011139
17.819	-0.011444	0.10407	0.039673	0.008087	-0.14938	-0.068054	0.30838	0.00824	-0.005035	-0.030975	0.023956	0.012665	0.22751	0.14999	-0.10773	0.007477	-0.020142	-0.086365	-0.10819	-0.010529	0.007935	-0.006409	-0.038757	-0.041046	0.003967	0.007629	-0.12451	-0.004883	0.20981	-0.15427	-0.001221	0.000305
17.82	0.001068	0.064392	0.000916	0.005646	-0.019989	-0.061035	0.28946	0.001678	0.026855	-0.054626	-0.028839	0.008545	0.56122	0.24918	0.027924	0.00061	-0.013885	-0.11581	-0.13641	0.01297	-0.001678	0.000458	-0.053406	-0.022125	0.014191	0.009155	-0.3717	-0.003815	0.20142	-0.13779	-0.00351	-0.005951
17.821	0.012054	0.052185	-0.001068	-0.00412	0.083771	-0.042114	0.14954	0.006409	0.073395	-0.042419	0.006714	0.010223	0.52628	0.24445	0.095978	0.007324	-0.003357	-0.11871	-0.00946	0.01297	-0.00473	-0.026703	-0.050964	-0.083466	0.012512	0.009308	-0.33157	-0.003662	0.15243	-0.061951	-0.001984	-0.000916
17.822	0.005035	0.079346	-0.080109	-0.002289	0.087433	0.10803	0.20035	0.001068	0.14496	-0.090637	-0.012207	0.011902	-0.036621	0.17975	0.11902	0.011139	-0.007019	-0.13779	0.14694	-0.006256	-0.018311	-0.068665	-0.057526	-0.076599	0.0177	0.002289	-0.17425	-0.008545	0.17548	-0.014648	-0.002289	-0.004272
17.823	-0.002136	0.073242	0.010681	0.00412	0.084229	0.19669	0.30777	-0.002899	0.079956	-0.11414	-0.070496	0.012207	-0.69946	0.000305	0.070953	-0.001068	-0.003204	-0.095215	0.056152	0.001984	-0.033264	-0.057526	-0.072937	-0.051575	0.007477	0.003052	-0.13275	-0.009003	0.21561	0.027008	-0.00061	-0.00473
17.824	-0.023651	0.075531	0.05127	0.018921	0.052948	0.23392	0.35492	0.006561	0.027008	-0.15259	-0.078888	0.006714	-0.072784	-0.014191	0.058594	-0.000916	0.005035	-0.085449	-0.071869	0.00473	-0.027924	-0.029755	-0.093689	-0.063629	0.000916	0.003967	-0.23529	-0.005951	0.20966	0.14908	-0.001984	0.000458
17.825	-0.027618	0.092926	0.082703	-0.001526	0.055084	0.21332	0.30884	0.001526	0.009918	-0.15595	0.11108	0.014191	0.30472	0.065613	-0.009766	-0.002289	0.005035	-0.054626	-0.063629	-0.029144	0.016022	-0.055542	-0.090637	-0.077362	-0.013275	-0.006561	-0.070953	-0.009613	0.070038	0.19653	-0.001526	0.000763
17.826	-0.017242	0.034485	0.068665	-0.008087	-0.059052	0.10605	0.29511	0.009308	-0.02243	-0.19562	0.11734	0.005188	-0.38391	0.09964	-0.084381	-0.00946	0.011292	-0.086975	-0.036469	-0.078125	0.027466	-0.092163	-0.11292	-0.13199	-0.024261	-0.00061	0.1268	-0.005951	0.070801	0.071411	-0.002594	0.007935
17.827	0.003967	0.029144	0.014648	0.002594	-0.16464	-0.065765	0.30624	-0.000763	-0.028381	-0.17654	0.046692	0.004272	-0.14053	0.043335	-0.05188	0.000153	0.008392	-0.11002	-0.056	-0.011597	0.077362	-0.1294	-0.07309	-0.074768	-0.018311	0.005035	-0.16449	-0.013885	0.083008	0.033264	0.001831	-0.002136
17.828	0.022736	0.04776	-0.093994	-0.001221	-0.099792	-0.23163	0.29526	-0.00351	-0.008392	-0.078583	0.025787	-0.000458	-0.049591	0.019073	-0.047302	0.000458	0.003357	-0.12268	-0.001984	0.048218	-0.005188	-0.12192	-0.087128	-0.098114	-0.000916	0	-0.23117	-0.006256	0.072632	0.081482	-0.000458	-0.007477
17.829	0.02182	0.039063	-0.081024	0.004578	0.021362	-0.18753	0.30624	-0.005341	0.034485	0.093079	0.029297	0.000153	0.29526	0.077057	0.001373	0.00473	0.013428	-0.048981	-0.12161	-0.099487	-0.078735	-0.094147	-0.039978	-0.090485	-0.009766	-0.007172	-0.40573	-0.014038	0.06134	0.044708	-0.001068	0.001831
17.83	0.027924	0.003815	-0.018768	0.009918	0.075226	-0.066833	0.36682	0.00946	0.037384	0.37552	-0.021973	-0.001373	0.36194	-0.047302	-0.045471	0.014954	0.00412	-0.036926	-0.21957	-0.19547	-0.14465	0.10254	0.028687	-0.074005	0.003967	-0.011902	-0.40359	-0.008087	0.05661	0.007324	-0.000763	-0.004272
17.831	0.015717	0.058136	0.21576	0.027008	0.075684	-0.079041	0.40634	-0.005798	-0.04837	0.30441	-0.04364	-0.000763	0.32318	-0.16357	-0.004578	0.012817	0.004578	-0.021057	0.23773	-0.20737	-0.016785	0.23056	0.10696	-0.059814	0.016937	-0.017853	-0.15991	-0.000763	-0.027313	0.004578	-0.002289	0.004425
17.832	0.005798	0.022278	0.4126	0.027924	0.060425	-0.03479	0.37537	0.00885	-0.1738	0.17075	-0.061493	0.006409	0.51239	-0.22766	0.024567	0.000153	0.020142	0.030365	0.91675	-0.091858	0.040283	0.08667	0.18204	-0.051422	0.011597	0.011139	0.10468	-0.01297	-0.14465	0.016022	-0.001221	-0.000305
17.833	-0.001984	0.006409	0.21027	0.03479	0.045319	-0.037842	0.35187	0.02182	-0.21759	0.12268	-0.059052	0.022125	0.29007	-0.35263	0.034637	-0.020905	0.02182	0.004272	0.40573	0.10712	-0.019379	-0.007019	0.043793	-0.094147	0.027313	0.012665	0.014954	-0.014191	-0.13275	0.019989	-0.00412	-0.003967
17.834	-0.001984	0.10254	0.017242	0.01297	0.028229	-0.036774	0.22964	0.017853	-0.055695	0.15595	0.022278	0.031738	0.13351	-0.35934	0.043335	-0.015717	0.008545	-0.018463	-0.61005	0.20981	-0.005951	-0.023499	-0.041046	-0.10239	0.027466	0.005646	-0.11749	-0.008087	-0.048828	-0.020752	-0.001221	0.003815
17.835	0.002289	0.11353	0.2153	-0.038757	0.066986	-0.025635	0.15823	0.019531	-0.037994	0.11826	0.05722	0.035858	0.48126	-0.1651	0.05722	-0.015259	0.018921	0.013123	-0.63904	0.15442	-0.015564	-0.032501	-0.007019	-0.059204	0.034943	-0.002136	0.014038	-0.006104	0.30807	-0.083771	0	0.001221
17.836	0.001526	0.10071	0.28198	-0.025177	0.059967	-0.10071	0.005646	0.000153	0.27741	0.15686	0.031738	0.015717	-0.26932	-0.031433	-0.027161	-0.000916	-0.007782	-0.010986	-0.55557	0.12482	0.003204	-0.052795	-0.065155	-0.002136	0.053711	-0.001678	0.14404	-0.004272	0.33096	-0.095978	-0.00061	0.003815
17.837	0.016632	0.080566	0.20538	-0.010376	0.076599	-0.054474	-0.0177	-0.021973	0.39215	0.01297	-0.001068	0.018158	-0.87692	0.060577	-0.055847	-0.011444	-0.021057	-0.015564	0.089722	0.19653	-0.091858	0.018463	-0.08316	-0.017395	0.020599	-0.006104	0.30868	-0.008545	0.13123	-0.11002	-0.004425	-0.003204
17.838	0.014801	0.086365	0.21454	0.01358	0.055084	-0.025177	0.11261	-0.03891	0.21072	-0.19684	0.000153	0.011597	-0.4039	0.15793	-0.022278	-0.009308	0.006104	-0.058289	0.62561	0.10849	-0.11673	0.001831	-0.12222	-0.057678	0.019531	-0.008087	0.30655	-0.002747	0.14954	-0.080566	-0.004883	0.007324
17.839	0.005798	0.094299	0.16312	0.027008	-0.003662	0.03067	0.27451	-0.021362	-0.00885	-0.14984	0.004578	0.012054	-0.17868	0.15793	0.011292	-0.00824	0.032196	-0.13351	0.058441	0.024414	-0.071411	-0.13626	-0.054779	-0.065918	0.00946	0.001373	0.19882	-0.006256	0.33676	-0.032043	-0.000458	0.009308
17.84	-0.011597	0.11429	0.12054	0.018616	-0.041046	0.081787	0.27054	-0.014191	-0.016785	-0.08728	0.019989	0.018311	0.0354	0.10574	0.045166	-0.010681	0.047913	-0.1059	-0.52048	-0.054169	-0.063324	-0.17609	-0.033875	-0.11337	0.027008	-0.006409	0.10651	-0.002136	0.19379	0.069122	-0.001526	0.004883
17.841	0.000763	0.14236	0.070953	-0.017548	0.024567	0.071869	0.25894	-0.005035	-0.022125	-0.054779	0.003052	0.020294	0.072021	0.056305	0.045319	-0.004578	0.082397	-0.058746	-0.37796	-0.12589	-0.074768	-0.13519	-0.029297	-0.11688	0.060272	-0.010986	-0.094299	-0.004425	0.029297	0.052948	-0.002136	0.009308
17.842	-0.015564	0.087433	0.000763	-0.012054	0.059204	0.091095	0.24765	-0.003052	-0.029602	-0.041199	-0.00061	0.019226	-0.18402	0.015717	0.012207	-0.022583	0.0914	-0.070953	-0.40573	-0.10071	-0.12238	-0.066223	0.007019	-0.12955	0.098877	-0.009003	-0.39017	-0.001526	-0.10574	-0.062256	-0.010834	0.016479
17.843	-0.006561	0.002899	-0.004272	0.009003	0.056152	0.05661	0.23086	-0.009003	-0.023346	-0.065002	0.014648	0.017548	-0.40115	0.034027	0.001678	-0.009613	0.051117	-0.12268	-0.14114	0.054016	-0.095673	0.1886	0.015411	-0.10254	0.1268	-0.015564	-0.32166	-0.003204	-0.37903	-0.041199	-0.005341	0.013733
17.844	-0.011902	-0.020599	-0.015564	0.010529	0.027618	0.099792	0.20813	-0.004272	0.014648	-0.11139	0.012817	0.016022	-0.30655	0.023956	-0.048828	-0.014648	0.009918	-0.11307	0.2063	0.07019	0.007477	0.2095	0.062408	-0.028229	0.13916	-0.027161	-0.065613	-0.002747	-0.34195	-0.034485	-0.010376	0.003204
17.845	-0.022125	-0.044861	0.000916	0.013275	-0.059357	0.10452	0.25925	0.007935	-0.013733	-0.12726	0.020752	0.015259	-0.31052	0.10407	-0.18127	0.001831	-0.003204	-0.11002	0.14816	0.092316	0.008392	0.1033	0.031586	0.04715	0.12756	-0.041351	0.04425	0.000153	-0.17014	0.02594	-0.000305	0.009918
17.846	-0.008392	-0.0737	0.018616	0.006256	-0.093079	0.046234	0.23025	0.000458	-0.028992	-0.10605	0.029144	0.017853	-0.25345	0.16037	-0.17639	-0.016937	-0.00061	-0.13901	-0.083618	0.11139	0.071106	0.04425	0.051575	0.089264	0.088043	-0.041351	0.03067	-0.003357	0.35202	0.036316	0.009613	0.010376
17.847	0.009003	-0.067444	0.025024	0.004272	-0.066528	-0.002594	0.24979	-0.00885	-0.056152	-0.085602	0.021057	0.016174	0.079346	0.11444	-0.103	-0.001678	-0.005188	-0.16266	-0.13519	0.1239	0.052643	0.020599	0.003815	0.07309	0.054626	-0.044861	0.019226	-0.006561	0.45532	0.021362	-0.00351	0.013733
